<?xml version="1.0" standalone="no"?>
<!DOCTYPE svg PUBLIC "-//W3C//DTD SVG 20010904//EN"
 "http://www.w3.org/TR/2001/REC-SVG-20010904/DTD/svg10.dtd">
<svg version="1.0" xmlns="http://www.w3.org/2000/svg"
 width="1000.000000pt" height="1000.000000pt" viewBox="0 0 1000.000000 1000.000000"
 preserveAspectRatio="xMidYMid meet">
<metadata>
Created by potrace 1.14, written by Peter Selinger 2001-2017
</metadata>
<g transform="translate(0.000000,1000.000000) scale(0.100000,-0.100000)"
fill="#000000" stroke="none">
<path d="M4778 9995 c-2 -1 -55 -5 -118 -9 -63 -3 -126 -8 -140 -10 -14 -3
-52 -7 -85 -10 -82 -8 -130 -15 -195 -26 -30 -5 -71 -11 -90 -14 -132 -20
-421 -87 -585 -137 -110 -34 -318 -104 -350 -118 -11 -5 -67 -28 -125 -52
-206 -83 -462 -212 -670 -337 -74 -45 -301 -194 -324 -213 -6 -5 -51 -39 -101
-76 -432 -320 -841 -753 -1152 -1218 -139 -208 -214 -339 -324 -565 -44 -91
-85 -173 -90 -183 -19 -35 -128 -315 -162 -417 -33 -97 -101 -323 -112 -373
-2 -12 -18 -79 -34 -149 -16 -69 -32 -146 -36 -170 -9 -59 -12 -78 -19 -113
-5 -30 -13 -84 -21 -147 -3 -18 -7 -60 -10 -93 -4 -33 -8 -67 -10 -75 -25 -92
-25 -764 -1 -970 3 -19 7 -62 11 -95 8 -81 24 -197 30 -215 2 -8 6 -33 9 -55
4 -32 31 -175 51 -265 77 -356 236 -794 420 -1155 328 -643 767 -1180 1350
-1654 144 -117 498 -354 655 -439 250 -134 391 -202 595 -284 237 -96 554
-193 797 -244 80 -17 126 -26 143 -28 11 -2 63 -11 115 -19 114 -19 145 -24
230 -32 36 -4 76 -9 90 -11 147 -24 760 -24 955 0 17 2 59 7 95 11 93 10 115
12 160 20 22 4 50 8 63 10 273 36 786 175 1032 280 17 7 55 23 85 35 132 53
394 180 520 251 538 303 1011 695 1400 1159 30 36 57 67 60 70 41 38 304 417
407 585 121 198 373 723 373 778 0 7 4 17 9 23 12 14 130 370 146 443 3 12 7
29 9 38 24 96 56 233 59 253 3 14 14 72 25 130 12 58 23 128 27 155 3 28 8 59
10 70 2 11 7 49 10 85 3 36 8 79 10 95 25 200 26 752 1 965 -3 19 -7 62 -11
95 -7 69 -14 119 -20 155 -6 29 -14 82 -19 125 -3 24 -27 141 -51 255 -11 50
-60 236 -78 295 -12 39 -22 72 -22 75 -1 9 -36 113 -72 215 -185 524 -527
1118 -883 1529 -241 279 -499 527 -741 713 -41 31 -78 61 -84 66 -57 49 -406
278 -519 341 -226 125 -471 242 -666 316 -47 17 -94 36 -105 41 -142 60 -600
182 -845 224 -43 7 -140 22 -200 30 -14 2 -43 6 -65 9 -22 3 -74 8 -115 12
-41 4 -93 8 -115 10 -47 5 -583 13 -587 9z m577 -119 c86 -7 261 -26 295 -31
25 -4 156 -24 195 -30 87 -12 316 -64 450 -102 50 -14 97 -26 105 -28 8 -2 71
-22 140 -45 498 -167 1008 -435 1410 -743 370 -283 685 -600 966 -972 68 -90
257 -374 299 -450 16 -27 49 -86 73 -130 106 -187 251 -515 327 -734 38 -111
98 -307 110 -358 2 -10 12 -47 20 -83 23 -92 22 -85 44 -200 33 -168 39 -202
46 -253 4 -27 8 -57 10 -66 2 -10 6 -51 10 -92 3 -41 8 -81 10 -89 24 -89 24
-789 0 -931 -2 -13 -6 -52 -9 -87 -3 -35 -10 -91 -16 -125 -5 -34 -12 -82 -15
-107 -3 -25 -10 -67 -15 -95 -6 -27 -12 -59 -14 -70 -2 -11 -16 -72 -31 -135
-14 -63 -28 -124 -30 -135 -47 -216 -235 -730 -339 -925 -8 -14 -38 -72 -69
-130 -30 -58 -64 -121 -75 -140 -11 -19 -30 -52 -41 -73 -20 -35 -175 -279
-193 -302 -5 -5 -45 -59 -90 -120 -212 -287 -463 -560 -708 -770 -58 -49 -107
-92 -110 -95 -19 -19 -163 -130 -255 -196 -579 -418 -1279 -718 -1955 -838
-47 -9 -94 -17 -105 -20 -11 -2 -49 -7 -85 -11 -36 -4 -67 -9 -71 -10 -3 -2
-39 -7 -80 -10 -40 -4 -85 -8 -99 -11 -154 -24 -703 -24 -925 0 -16 2 -61 7
-100 11 -38 3 -77 8 -85 10 -8 2 -35 7 -60 10 -239 32 -554 106 -820 194 -231
77 -332 117 -533 210 -49 23 -90 41 -91 41 -9 0 -313 169 -391 217 -359 222
-637 443 -934 743 -63 63 -153 160 -200 215 -47 55 -88 102 -91 105 -18 16
-188 240 -246 325 -70 101 -163 246 -205 320 -162 287 -262 496 -340 710 -16
44 -34 89 -39 100 -22 48 -119 366 -140 460 -7 28 -13 57 -16 65 -13 52 -36
160 -39 188 -2 18 -7 42 -10 52 -7 22 -10 38 -19 103 -4 27 -9 56 -10 65 -8
44 -23 169 -31 257 -26 274 -25 729 0 940 2 17 7 57 10 90 10 94 52 354 76
462 41 193 150 572 189 658 5 11 32 79 60 150 55 141 193 429 267 559 556 973
1402 1718 2423 2134 260 106 582 206 800 248 13 3 56 12 95 20 60 13 99 19
230 39 128 19 218 29 380 40 43 3 80 7 82 8 5 5 536 -1 608 -7z"/>
<path d="M4778 9795 c-2 -1 -53 -5 -114 -9 -60 -4 -119 -8 -130 -10 -10 -2
-50 -7 -89 -10 -38 -4 -110 -13 -160 -21 -49 -8 -103 -16 -120 -18 -67 -11
-284 -59 -389 -86 -119 -32 -411 -124 -461 -146 -16 -8 -77 -32 -135 -55 -202
-80 -438 -198 -645 -323 -98 -59 -335 -215 -345 -226 -3 -3 -41 -33 -85 -65
-209 -155 -550 -472 -717 -666 -285 -332 -474 -613 -683 -1020 -140 -270 -303
-716 -371 -1012 -2 -10 -6 -26 -8 -35 -8 -31 -34 -157 -40 -188 -3 -16 -7 -43
-10 -60 -8 -42 -15 -83 -21 -130 -3 -22 -8 -53 -10 -70 -5 -30 -13 -95 -20
-164 -32 -304 -26 -789 15 -1086 5 -38 12 -92 16 -120 3 -27 7 -57 9 -65 2 -8
7 -31 10 -50 90 -539 317 -1144 608 -1625 117 -193 345 -514 429 -605 13 -14
45 -52 73 -85 50 -61 385 -399 440 -445 251 -209 367 -297 560 -423 344 -224
749 -417 1132 -541 262 -84 566 -155 773 -182 19 -2 46 -6 60 -9 14 -2 57 -7
95 -11 39 -3 79 -8 89 -10 95 -18 611 -25 796 -11 333 24 763 99 991 173 25 8
54 16 65 18 39 8 283 95 407 145 354 142 754 363 1023 566 27 20 62 46 78 58
243 179 593 512 786 747 25 30 47 57 51 60 21 17 250 338 321 450 244 387 458
862 564 1255 8 33 24 92 34 130 24 87 76 335 84 395 3 25 8 59 11 75 3 17 7
44 10 60 3 17 8 59 11 93 3 35 7 73 10 85 24 126 24 806 -1 959 -2 13 -6 50
-10 83 -3 33 -8 69 -10 80 -2 11 -7 40 -10 65 -3 25 -10 72 -16 105 -5 33 -12
74 -15 90 -3 17 -9 46 -14 65 -5 19 -12 51 -15 70 -33 192 -158 580 -280 865
-233 544 -570 1039 -1005 1476 -171 171 -236 231 -375 345 -130 106 -369 275
-510 361 -464 282 -999 499 -1470 597 -11 3 -52 11 -91 20 -89 19 -180 34
-309 51 -27 3 -60 8 -72 10 -12 2 -57 6 -100 10 -43 4 -94 9 -113 12 -37 5
-577 13 -582 8z"/>
</g>
</svg>
